<svg width="700" height="306" viewBox="0 0 700 306" fill="none" xmlns="http://www.w3.org/2000/svg">
<path d="M700 0H0V306C11.8443 297.223 42.6396 270.224 71.066 232.451C106.599 185.234 169.374 122.582 237.281 162.534C305.189 202.487 399.549 179.786 499.831 141.65C580.056 111.141 666.704 34.5045 700 0Z" fill="#FAFAFA"/>
<path d="M700 0H0V248C11.8443 240.886 42.6396 219.005 71.066 188.392C106.599 150.125 169.374 99.3472 237.281 131.727C305.189 164.107 399.549 145.709 499.831 114.801C580.056 90.0748 666.704 27.9644 700 0Z" fill="#126BFD"/>
<path d="M699.605 0H0V168.5C11.8377 163.667 42.6156 148.8 71.0259 128C106.539 102 169.278 67.5 237.148 89.5C305.017 111.5 399.324 99 499.549 78C579.729 61.2 666.328 19 699.605 0Z" fill="#3B82F6"/>
</svg>
