<svg width="426" height="327" viewBox="0 0 426 327" fill="none" xmlns="http://www.w3.org/2000/svg">
<path fill-rule="evenodd" clip-rule="evenodd" d="M133.266 148.291C134.811 163.894 136.357 179.498 137.902 195.101C146.315 190.3 154.729 185.499 163.143 180.698V225.588C163.143 226.415 162.652 229.255 163.143 229.971C163.559 230.578 166.642 230.596 167.371 230.698C172.128 231.364 176.897 231.956 181.672 232.484C194.258 233.874 207.728 235.865 220.362 234.268C231.344 232.879 241.99 228.973 252.024 224.428C255.546 222.833 259.02 221.125 262.428 219.3C263.151 218.913 265.775 218 266.168 217.212C266.488 216.568 265.735 214.308 265.635 213.631C265.211 210.78 264.787 207.929 264.363 205.078L258.442 165.266L269.628 176.436C270.504 177.311 272.168 179.796 273.381 180.184C274.269 180.468 276.471 179.588 277.35 179.419C283.684 178.198 290.017 176.977 296.351 175.757C297.827 175.473 301.153 175.483 302.396 174.592C303.066 174.112 303.098 173.135 303.334 172.209C304.879 166.156 306.424 160.104 307.969 154.053C308.247 152.963 309.799 149.526 309.405 148.428C309.263 148.035 308.578 147.765 308.159 147.509C298.6 141.67 289.039 135.831 279.48 129.992C274.243 126.794 269.007 123.595 263.77 120.397C261.576 119.057 258.882 116.643 256.396 115.893C254.853 115.428 252.608 115.777 251.012 115.731C247.767 115.638 244.523 115.546 241.278 115.453C240.77 115.439 238.99 115.077 238.563 115.376C238.207 115.625 238.355 115.972 238.238 116.566C237.952 118.016 237.95 119.579 237.81 121.05C237.697 122.231 237.921 124.397 237.389 125.466C237.049 126.149 237.48 125.877 237.02 126.207C236.472 126.6 234.724 126.474 234.073 126.549C230.893 126.919 227.713 127.288 224.534 127.657C220.754 128.096 216.932 128.92 213.134 128.54C207.376 127.966 201.168 127.994 195.515 126.781C194.045 126.466 193.516 125.638 192.383 124.507C190.171 122.298 187.981 120.063 185.745 117.878C184.648 116.807 185.118 116.988 183.988 117.394C182.572 117.903 181.136 119.132 179.854 119.912C174.944 122.903 170.033 125.895 165.122 128.886L135.142 147.148C134.516 147.529 133.891 147.91 133.266 148.291Z" fill="#3B82F6"/>
<path fill-rule="evenodd" clip-rule="evenodd" d="M420.021 150.231C413.841 173.694 401.411 199.277 376.37 206.756C370.281 208.574 364.359 209.947 358.035 209.254C357.433 209.188 356.93 209.273 356.357 209.284C355.332 209.304 356.218 209.672 355.067 209.317C354.17 209.04 353.331 208.347 352.396 208.041C349.911 207.228 347.262 207.071 344.737 206.414C338.532 204.8 332.137 202.807 326.124 200.581C323.293 199.533 320.691 198.073 318.028 196.669C315.321 195.242 312.452 194.355 309.715 193.047C307.551 192.012 303.845 190.664 302.324 188.723C300.702 186.654 302.946 182.248 303.588 180.048C305.768 172.562 308.366 165.185 310.005 157.55C315.665 164.11 323.522 168.172 331.655 170.792C336.068 172.214 340.607 173.242 345.197 173.885C349.364 174.469 353.86 175.176 358.037 174.347C361.19 173.721 365.148 172.271 367.401 169.865C368.204 169.005 369.169 167.43 368.718 166.182C368.146 164.598 366.481 165.343 365.58 164.161C364.795 163.131 364.918 160.722 364.667 159.468C364.225 157.248 363.616 155.09 362.874 152.953C361.433 148.804 359.638 144.646 359.208 140.232C358.834 136.402 359.706 132.78 361.616 129.457C362.519 127.886 364.787 123.612 367 123.789C369.43 123.984 366.152 134.226 366.045 136.315C365.62 144.597 366.732 153.421 370.981 160.68C372.609 163.459 374.962 166.695 378.436 167.04C382.116 167.404 385.084 164.509 386.835 161.58C391.109 154.433 388.955 144.625 386.79 137.135C384.135 127.944 377.205 121.61 372.823 113.356C379.365 114.013 382.869 118.169 386.226 123.442C389.923 129.247 392.8 136.216 394.219 142.97C394.936 146.383 394.441 149.81 394.445 153.256C394.447 154.401 394.446 158.624 396.313 158.458C398.308 158.28 398.992 153.517 399.286 152.064C399.958 148.731 400.686 145.397 401.27 142.048C402.303 136.121 402.762 130.052 404 124.166C404.209 123.171 404.626 120.411 406.115 121.156C407.263 121.73 407.079 125.999 407.121 126.992C407.224 129.437 407.369 131.882 407.389 134.33C407.418 137.958 406.695 141.713 407.05 145.319C407.282 147.675 408.546 150.278 410.114 147.101C411.668 143.949 411.985 140.02 412.852 136.631C413.762 133.073 414.702 129.463 416.635 126.303C417.171 125.426 417.747 124.034 418.938 124.446C419.804 124.747 420.443 126.798 420.711 127.522C421.918 130.795 421.713 134.433 421.637 137.859C421.544 142.056 421.093 146.161 420.021 150.231ZM299.509 156.32C299.179 156.213 297.776 156.08 297.428 156.049C297.02 156.014 297.483 155.262 296.496 155.476C296.687 155.948 297.025 156.263 297.512 156.421C296.028 156.923 294.933 155.684 293.919 155.524C292.948 155.372 292.907 155.524 291.948 156.549C290.91 155.284 291.105 156.073 290.251 156.073C289.941 156.074 289.927 156.543 289.422 156.487C288.98 156.438 288.934 155.768 288.673 155.69C287.257 155.261 285.8 157.418 284.193 155.547C283.804 157.493 279.345 155.055 277.629 155.397C275.831 155.755 276.606 156.4 275.153 155.298C273.768 154.248 274.154 154.945 272.543 155.805C272.581 155.785 271.634 156.424 271.722 156.434C270.607 156.304 270.67 155.151 269.258 155.212C267.763 155.277 267.125 156.449 265.757 155.007C265.459 156.087 265.398 155.622 264.697 155.894C264.311 155.985 263.974 155.884 263.685 155.59C263.597 155.887 263.404 156.069 263.106 156.136C262.343 156.204 260.91 156.311 260.216 155.943C259.176 155.391 260.012 155.179 259.29 154.559C258.967 156.27 258.258 155.906 256.763 156.066C255.622 156.188 255.371 155.838 254.282 155.668C253.209 155.501 251.822 155.917 250.775 156.094C250.343 156.168 249.765 156.469 249.325 156.363C248.929 156.268 248.759 155.96 248.522 155.88C248.235 155.783 248.296 155.532 247.799 155.41C247.457 155.326 246.843 155.647 246.501 155.703C244.061 156.099 241.718 156.103 239.39 155.143C240.536 157.158 236.711 156.07 236.028 155.236C235.176 156.572 234.144 155.629 232.426 155.733C230.771 155.833 228.282 156.34 227.612 154.279C227.48 154.698 226.541 155.914 226.167 156.1C225.083 156.637 224.953 155.842 223.945 155.518C222.572 155.077 222.858 155.914 222.007 156.084C220.57 156.372 219.794 155.36 218.524 154.822C218.47 155.658 218.443 156.172 217.72 156.693C217.079 154.362 214.794 156.884 215.186 153.768C214.317 154.334 213.094 154.769 212.846 155.914C214.3 155.514 213.001 156.464 212.94 156.496C212.748 156.596 212.099 155.685 211.948 155.557C211.907 155.986 211.866 156.417 211.825 156.846C211.246 156.557 210.702 156.038 210.232 155.778C209.808 155.544 210.415 155.057 209.699 155.024C209.322 155.005 208.929 155.822 208.533 155.892C207.928 155.998 208.218 155.13 207.965 155.159C207.579 155.203 206.95 155.768 206.658 155.757C205.701 155.722 206.349 155.276 205.619 155.072C204.314 154.707 204.398 155.56 203.459 155.868C201.313 156.573 201.529 153.33 199.345 155.493C198.823 156.01 198.486 156.809 197.771 156.764C196.289 156.671 196.809 154.915 197.11 154.055C197.422 154.208 191.696 157.149 191.741 157.034C191.777 156.329 192.678 155.785 191.873 155.158C191.215 156.571 190.522 156.595 189.004 156.858C188.267 156.986 188.121 157.157 187.332 156.85C186.829 156.655 186.491 155.853 185.991 155.809C186.059 155.815 185.141 156.513 185.001 156.576C184.173 156.95 183.648 156.526 182.844 156.68C182.157 156.811 181.887 157.395 181.204 157.235C180.293 157.021 180.828 155.933 179.575 156.237C179.146 156.341 178.888 157.167 178.213 157.337C177.16 157.604 175.87 157.107 174.758 157.366C173.875 157.572 173.22 157.659 172.448 157.702C171.824 157.737 172.08 157.252 170.932 157.825L170.445 156.597C169.871 157.114 169.296 157.631 168.721 158.148C168.612 157.684 168.543 157.215 168.514 156.74C167.656 157.599 166.577 157.745 165.424 157.823C164.176 157.906 163.247 158.178 162.032 158.406C161.649 158.478 160.66 158.593 160.344 158.459C160.391 158.479 159.754 158.214 159.946 158.264C159.863 158.096 159.786 157.925 159.715 157.75C159.608 157.266 159.26 157.245 158.671 157.686C158.366 157.64 157.776 157.24 157.472 157.338C156.689 157.592 156.795 158.2 156.015 158.111C155.509 158.053 155.25 157.304 154.723 157.254C153.916 157.176 153.217 158.079 152.49 158.276C154.7 157.676 149.623 158.142 151.202 158.183C150.167 158.156 149.092 158.105 148.136 158.568C147.607 158.207 148.249 157.481 147.715 157.182C147.231 156.911 147.194 157.627 147.137 157.643C147.443 157.556 147.29 158.165 146.984 158.274C146.032 158.611 145.27 157.753 145.22 156.901C144.411 158.119 144.184 157.63 142.994 157.705C141.82 157.779 140.807 158.395 139.633 158.383C137.31 158.361 135.734 157.554 134.959 155.48C137.434 155.782 139.925 154.19 142.345 154.565C143.14 154.688 143.637 155.286 144.334 155.18C145.192 155.049 145.792 154.113 146.893 154.012C149.321 153.79 151.714 154.006 154.159 153.634C157.079 153.189 160.126 152.925 163.074 153.142C165.353 153.31 167.198 152.439 169.508 152.271C172.495 152.053 175.507 152.015 178.499 151.858C181.573 151.696 184.882 151.206 187.948 151.363C188.905 151.412 189.729 151.506 190.679 151.449C191.08 151.425 191.461 151.152 191.882 151.192C192.431 151.246 192.667 151.808 193.237 151.788C194.204 151.755 195.239 150.958 196.389 150.936C198.281 150.9 200.164 150.905 202.06 150.797C203.73 150.702 205.518 150.312 207.18 150.333C208.353 150.348 208.642 151.346 209.325 151.45C210.554 151.635 216.768 148.099 217.305 151.273C220.54 149.058 224.879 150.933 228.48 150.517C233.106 149.983 237.818 150.459 242.475 150.269C247.214 150.075 252.09 150.254 256.811 150.701C258.766 150.886 260.655 151.06 262.616 150.948C263.49 150.898 264.501 150.675 265.375 150.876C265.586 150.925 267.208 152.057 267.006 152.089C267.892 151.294 267.293 151.178 268.85 151.137C270.051 151.105 271.187 151.365 272.381 151.436C274.524 151.562 276.684 151.265 278.822 151.331C280.608 151.385 282.354 151.649 284.149 151.661C286.083 151.676 288.368 151.73 289.768 153.29C289.62 152.8 289.473 152.311 289.325 151.821C291.485 151.99 293.619 152.761 295.802 152.4C295.25 152.929 294.689 153.361 294.478 154.138C295.656 153.988 296.453 153.166 297.692 153.16C298.734 153.153 298.95 153.676 300.049 153.001C300.185 153.828 300.32 154.654 300.455 155.481C301.978 155.123 300.979 153.988 301.09 152.964C302.327 153.336 303.375 152.909 302.887 154.689C302.511 156.061 300.798 156.737 299.509 156.32ZM297.37 171.605C296.839 173.096 292.248 172.244 291.162 172.086C289.759 171.884 288.154 171.561 286.863 171.401C286.708 171.194 286.521 171.019 286.305 170.875C286.143 171.101 285.937 171.262 285.689 171.356C285.095 171.486 285.093 172.099 284.314 171.963C284.278 172.869 284.907 172.355 285.389 172.683C284.174 173.498 284.73 172.56 284.048 172.575C283.879 172.335 283.644 172.241 283.342 172.293C282.958 172.392 282.604 172.557 282.28 172.786C281.976 173.107 281.716 173.123 281.5 172.836C281.292 172.628 281.039 172.499 280.74 172.45C279.543 172.644 279.208 173.175 277.86 173.089C275.934 172.965 273.851 173.472 271.955 173.205C270.78 173.04 268.817 171.193 268.283 172.993C267.471 171.659 266.177 170.751 265.399 169.389C269.022 169.179 272.644 168.929 276.27 168.798C279.444 168.684 282.917 169.042 285.884 168.892C288.663 168.752 291.606 168.445 294.443 168.191C297.451 167.922 298.446 168.582 297.37 171.605ZM202.857 171.825C204.173 172.189 205.426 171.364 206.701 171.625C207.123 171.711 207.996 172.479 208.188 172.494C208.54 172.522 209.572 171.768 210.015 171.667C212.817 171.029 216.212 171.097 219.014 171.489C220.498 171.696 220.726 171.017 222.022 170.687C223.368 170.343 225.283 170.608 226.701 170.513C230.038 170.29 233.373 170.449 236.687 170.205C240.089 169.954 243.474 169.819 246.877 169.644C249.196 169.524 254.768 168.202 256.689 169.923C258.274 171.342 256.232 173.806 254.647 174.369C253.462 174.788 252.894 173.903 252.014 173.988C251.012 174.084 251.362 175.268 250.467 174.17C249.913 175.262 246.429 174.796 245.431 174.869C243.256 175.026 241.415 175.462 239.934 173.433C240.035 174.018 240.135 174.603 240.236 175.189C238.272 174.139 236.165 174.475 234.46 174.841C233.616 175.022 231.025 176.274 230.111 175.734C229.482 175.363 230.591 174.728 229.529 174.411C228.973 174.245 228.013 175.168 227.333 175.122C225.452 174.993 225.985 173.728 224.138 175.338C223.512 174.796 223.303 173.876 223.386 173.087C222.044 174.232 222.156 176.14 219.756 175.79C218.862 175.661 218.698 174.749 218.231 174.58C217.238 174.221 217.125 174.866 216.265 175.377C215.94 175.569 215.544 175.879 215.162 175.917C214.376 175.996 214.252 175.635 214.144 175.647C213.621 175.704 212.963 175.97 212.342 175.78C211.786 175.61 211.623 174.627 210.642 174.857C209.704 175.077 209.696 175.715 209.866 176.669C208.94 176.573 208.381 176.058 207.688 175.499C206.989 177.13 205.518 175.779 204.704 177.155C203.644 175.889 202.963 176.237 201.648 175.001C201.713 175.517 201.777 176.033 201.841 176.549C200.815 176.351 200.358 175.627 199.482 176.585C198.632 175.002 196.055 177.258 194.731 175.728C194.141 177.665 190.237 177.202 188.588 177.236C187.127 177.266 186.045 177.146 184.617 177.485C183.356 177.785 181.607 178.096 180.42 177.959C179.645 177.869 178.797 177.727 177.831 177.832C176.439 177.983 175.236 178.704 173.793 178.363C171.621 177.849 170.29 174.996 172.709 173.743C174.365 172.886 177.347 173.203 179.169 173.045C182.189 172.782 185.573 172.232 188.597 172.482C190.955 172.677 193.105 172.115 195.512 171.877C197.323 171.698 200.293 171.376 201.474 173.172C201.928 172.647 201.881 171.555 202.857 171.825ZM169.801 196.403C169.477 194.788 183.282 193.899 184.652 193.793C187.529 193.571 190.414 193.413 193.298 193.34C195.668 193.28 197.88 193.732 200.251 193.368C202.466 193.029 205.138 192.332 207.066 193.9C207.349 191.756 215.659 192.8 217.24 192.806C224.122 192.831 230.708 192.847 237.365 192.421C241.169 192.177 245.209 191.85 249.014 192.04C250.731 192.126 252.113 192.583 253.819 192.186C254.932 191.928 256.132 191.389 257.197 192.15C258.443 193.042 258.975 196.069 258.117 197.333C257.492 198.253 256.938 198.151 255.939 197.992C254.404 197.747 253.263 197.392 251.698 198.016C251.951 197.915 250.649 198.206 250.757 198.197C248.983 198.33 246.551 199.569 245.023 198.141C245.635 198.248 246.525 197.155 245.753 197.065C245.173 196.998 244.806 197.619 244.353 197.827C242.806 198.539 242.014 198.316 241.09 196.823C239.227 198.436 239.026 197.99 238.208 196.004C237.578 196.488 237.443 197.636 236.947 198.012C236.873 198.068 237.178 198.765 236.82 198.737C236.488 198.71 236.379 198.165 236.124 198.123C235.961 198.095 235.876 197.618 235.72 197.588C235.551 197.557 235.377 197.862 235.185 197.853C234.673 197.829 233.209 198.918 233.734 197.389C232.958 198.376 232.624 197.747 232.344 196.849C231.448 197.53 230.553 198.211 229.657 198.891C229.24 197.733 228.523 198.049 227.621 198.453C227.893 197.649 227.723 196.888 227.041 197.447C226.646 197.771 226.381 198.799 225.977 199.235C224.341 197.579 223.747 198.033 221.487 198.249C220.625 198.331 219.553 198.49 218.783 197.969C218.105 197.511 217.722 195.831 216.563 197.188C216.822 196.887 216.417 199.206 216.346 199.574C215.835 199.23 215.401 198.806 215.044 198.304C214.377 199.624 212.627 198.439 211.193 198.709C208.936 199.134 206.607 199.849 204.613 198.169C204.472 198.711 202.838 199.402 202.836 199.423C202.933 198.463 203.539 198.8 202.301 198.618C202.073 198.585 201.815 198.994 201.6 199.039C200.862 199.192 200 199.047 199.257 199.026C196.163 198.937 193.332 199.622 190.277 199.871C189.247 199.954 188.026 200.118 187.059 199.73C186.064 199.33 186.091 198.876 185.083 199.133C185.402 199.052 184.454 200.048 184.505 200.011C184.369 200.109 183.804 199.623 183.604 199.66C183.545 199.872 183.486 200.084 183.428 200.297C183.185 200.267 182.942 200.237 182.699 200.207C182.035 200.297 181.436 199.624 180.812 199.602C180.927 199.605 179.128 200.275 179.21 200.316C177.954 199.69 178.315 199.871 176.721 200.253C175.215 200.613 173.716 200.529 172.171 200.754C167.677 201.406 170.354 199.154 169.801 196.403ZM165.832 218.872C164.987 217.673 167.235 217.259 167.954 217.153C169.135 216.979 170.702 217.325 171.489 217.138C172.687 216.853 173.844 216.172 175.194 215.987C176.897 215.755 178.613 215.717 180.323 215.571C180.892 215.522 181.597 215.326 182.152 215.359C182.977 215.409 183.32 215.845 183.986 215.848C185.121 215.854 186.521 215.137 187.684 215.006C189.174 214.837 190.678 214.758 192.175 214.684C195.328 214.527 198.449 214.592 201.601 214.589C203.039 214.587 206.867 213.095 207.584 214.767C208.581 213.5 211.137 213.673 212.562 213.636C215.072 213.571 217.556 213.329 220.064 213.213C222.212 213.113 224.611 213.572 226.72 213.25C227.882 213.073 228.268 212.701 229.585 212.869C230.565 212.993 232.057 212.476 232.898 212.705C232.854 212.693 233.947 213.37 233.606 213.391C233.981 213.367 233.959 213.629 234.373 213.512C234.917 213.359 234.667 212.676 235.794 212.433C237.551 212.054 239.894 212.492 241.72 212.395C243.491 212.301 245.259 212.26 247.032 212.268C247.848 212.272 248.857 212.077 249.651 212.236C250.04 212.314 250.867 212.822 251.197 212.771C252.131 212.625 252.607 211.976 253.87 212.016C255.302 212.062 256.59 212.042 258.014 211.933C259.392 211.827 259.614 211.631 260.297 212.777C260.974 213.915 261.161 215.397 259.914 216.17C260.724 216.117 261.72 217.201 260.766 217.801C260.176 218.172 258.994 217.335 258.288 217.395C257.418 217.47 256.736 217.93 255.79 217.958C254.795 217.989 253.784 218.239 252.803 218.258C251.781 218.278 251.008 217.821 250.039 218.016C249.186 218.188 249.096 218.886 248.068 218.273C247.558 217.967 247.472 216.836 246.775 216.826C245.842 216.811 246.214 218.017 245.678 218.575C245.534 216.851 244.203 219.704 243.674 217.611C243.186 218.306 241.38 219.278 240.505 218.72C239.708 218.211 239.972 217.06 239.64 216.23C239.087 217.721 237.603 219.268 237.738 216.553C237.017 217.441 235.069 217.301 235.557 218.853C234.97 218.842 234.831 218.003 234.337 217.94C233.911 217.885 233.572 218.213 233.506 218.208C233.74 218.228 232.808 218.538 232.793 218.541C233.425 218.413 230.973 218.194 231.39 218.198C230.821 218.193 230.125 218.659 229.459 218.658C228.853 218.656 228.25 218.417 227.652 218.349C226.101 218.172 226.424 218.513 225.45 219C225.089 219.18 224.999 219.486 224.486 219.448C224.108 219.419 223.967 218.926 223.924 218.922C223.393 218.869 223.785 218.69 222.96 218.773C222.865 218.936 222.771 219.098 222.676 219.261C222.378 219.642 221.991 219.737 221.517 219.547C220.295 219.809 216.244 220.945 216.641 218.842C216.021 219.145 215.4 219.449 214.779 219.753C214.513 218.057 211.141 220.305 210.387 220.419C209.421 220.563 209.332 220.193 208.418 219.995C208.253 219.96 207.923 220.503 207.537 220.425C206.535 220.224 206.356 220.124 206.184 219.035C205.47 220.371 204.875 219.774 203.579 219.993C203.292 220.042 203.109 220.607 202.697 220.509C202.4 220.439 202.392 219.897 202.188 219.827C202.004 219.764 202.031 219.335 201.76 219.275C201.449 219.204 200.388 220.074 200.084 220.208C199.398 220.511 198.271 221.011 197.601 220.862C196.773 220.677 197.141 220.062 195.971 220.132C194.125 220.239 193.354 221.811 192.206 219.335C191.687 220.327 191.753 220.596 190.92 220.923C190.305 221.165 188.747 220.912 187.937 220.882C184.477 220.755 181.076 221.934 177.645 221.625C176.137 221.489 174.865 221.187 173.343 221.434C171.744 221.694 170.18 222.075 168.557 222.229C167.733 222.307 166.009 222.544 165.604 221.489C165.248 220.561 166.576 219.928 165.832 218.872ZM172.617 256.936C168.13 259.939 164.413 264.038 160.293 267.51C156.162 270.99 152.883 274.858 149.168 278.713C145.733 282.275 142.577 285.646 138.425 288.338C135.797 290.042 133.453 292.139 130.753 293.746C128.732 294.949 125.669 296.531 126.655 292.851C127.666 289.08 129.532 285.268 131.153 281.745C133.458 276.739 135.779 271.778 138.272 266.866C139.209 265.021 139.733 263.184 141.219 261.714C142.836 260.114 143.968 258.025 145.739 256.513C153.186 250.155 164.41 255.067 172.617 256.936ZM186.695 259.092C184.659 260.159 182.381 260.424 180.223 261.129C178.385 261.73 176.676 262.799 174.698 262.879C176.498 261.527 178.044 259.691 180.074 258.665C182.356 257.511 184.428 258.351 186.695 259.092ZM276.042 267.985C268.555 265.458 261.583 261.736 254.291 258.74C253.032 258.222 243.186 254.98 243.386 253.437C250.285 252.173 257.391 250.003 264.307 252.368C270.599 254.52 275.716 259.68 280.587 263.999C281.857 265.126 289.717 270.258 289.013 271.893C288.526 273.026 284.74 272.717 283.845 272.485C282.69 272.184 282.025 271.483 281.119 270.713C279.604 269.425 277.928 268.621 276.042 267.985ZM262.22 225.776C263.357 224.729 264.038 223.141 265.124 222.175C266.52 220.934 268.772 221.539 270.298 222.184C274.876 224.118 278.79 227.371 283.34 229.389C288.383 231.627 292.748 234.616 297.296 237.697C301.454 240.514 305.949 242.845 310.193 245.532C314.517 248.272 319.358 250.052 323.741 252.694C328.202 255.384 332.646 258.083 336.933 261.046C344.578 266.33 352.538 271.757 358.193 279.269C361.1 283.131 363.821 287.511 365.954 291.847C367.893 295.789 369.996 301.26 367.484 305.361C365.071 309.299 360.957 312.401 357.476 315.339C356.158 316.451 354.904 317.803 353.195 318.286C351.116 318.871 348.691 318.71 346.553 318.883C335.123 319.81 324.475 318.935 313.211 316.891C302.35 314.92 291.443 313.816 280.499 312.446C274.325 311.674 268.152 310.773 262.062 309.486C259.458 308.936 256.809 308.302 254.262 307.552C252.037 306.897 250.166 305.456 247.878 304.885C238.17 302.461 227.062 301.534 217.451 297.456C225.956 293.921 234.995 291.786 243.712 288.849C252.887 285.758 261.848 283.164 271.518 282.286C276.494 281.834 280.947 280.563 285.734 279.233C290.296 277.965 295.058 277.577 299.744 277.009C301.828 276.756 307.774 277.134 308.465 274.411C309.493 270.355 303.65 269.887 301.16 270.251C297.626 270.766 294.712 271.648 292.008 268.749C289.247 265.789 286.564 262.758 283.753 259.835C278.541 254.416 273.168 248.148 265.8 245.717C256.811 242.751 246.388 245.566 237.418 247.253C227.945 249.035 218.487 250.74 209.191 253.33C205.342 254.402 200.377 256.765 196.382 256.386C192.445 256.011 187.985 255.366 184.18 254.231C182.458 253.718 181.043 252.765 179.503 251.878C177.499 250.723 175.304 249.983 173.179 249.086C168.88 247.271 164.689 245.6 160.051 244.887C156.145 244.286 151.997 243.93 148.212 245.299C144.499 246.642 141.209 249.377 138.618 252.299C135.803 255.474 133.477 259.031 131.171 262.577C130.063 264.279 128.712 265.765 127.565 267.429C126.602 268.827 126.04 270.379 125.021 271.738C122.741 274.776 121.192 278.664 119.811 282.198C118.275 286.125 116.57 290.794 116.936 295.066C117.075 296.68 117.219 298.819 117.844 300.315C118.638 302.22 119.771 302.171 121.403 302.889C124.208 304.123 124.995 307.533 128.62 306.868C132.02 306.245 134.969 303.443 137.449 301.21C140.682 298.3 143.777 295.231 146.871 292.174C150.045 289.036 153.174 285.556 155.699 281.865C156.693 280.412 157.468 278.77 158.643 277.447C160.14 275.762 161.819 275.559 163.852 274.888C181.619 269.018 199.472 263.355 217.794 259.479C222.183 258.55 226.608 257.352 230.921 256.116C235.494 254.805 237.862 256.191 241.637 258.686C249.522 263.9 258.843 267.572 267.623 270.974C270.389 272.045 274.79 272.113 276.951 274.226C264.14 276.178 251.932 279.936 239.575 283.678C233.482 285.522 227.32 287.122 221.205 288.886C215.087 290.651 209.202 292.938 203.169 294.927C197.164 296.907 190.818 297.715 184.755 299.541C178.566 301.406 172.402 302.688 166.049 303.821C159.635 304.966 153.265 306.287 146.828 307.311C143.881 307.78 140.934 308.267 138.02 308.912C135.168 309.544 132.413 311.057 129.547 311.407C116.747 312.973 104.199 316.463 91.4494 318.435C81.93 319.908 65.3683 321.962 59.1953 312.411C52.9879 302.806 60.6035 291.602 67.3986 284.735C71.6216 280.466 76.3668 276.71 81.3452 273.368C86.6737 269.792 91.8003 265.93 97.1297 262.359C109.19 254.277 122.268 247.686 135.225 241.192C141.445 238.075 147.454 234.732 153.504 231.311C156.507 229.613 158.168 232.353 160.542 234.215C162.409 235.68 165.837 239.29 168.449 237.621C168.55 238.222 168.65 238.823 168.751 239.425C169.516 239.076 170.282 238.728 171.046 238.379C171.56 239.726 171.5 240.563 172.936 241.271C173.817 241.706 175.699 242.229 176.54 241.464C176.711 241.996 176.882 242.528 177.054 243.06C177.789 243.004 177.931 240.901 178.069 240.409C179.328 242.249 181.07 243.786 183.284 244.305C183.294 244.185 182.924 242.674 182.94 242.665C183.64 242.236 184.523 244.072 184.895 244.465C186.126 245.768 186.86 245.566 188.22 244.515C188.319 244.622 188.779 245.823 188.846 245.801C189.14 245.708 189.699 244.644 189.76 244.547C189.675 245.946 192.378 246.228 193.332 245.928C193.118 245.518 192.904 245.108 192.69 244.698C196.015 244.254 197.32 247.786 200.511 247.607C202.87 247.473 200.978 246.958 202.313 245.947C203.479 245.064 203.687 246.996 203.801 246.934C204.024 246.701 204.196 246.434 204.319 246.131C204.75 247.785 208.187 249.268 207.832 246.549C209.184 247.09 210.143 247.988 211.64 248.177C213.458 248.407 215.4 248.021 217.215 247.871C221.124 247.546 224.809 246.748 228.332 244.957C230.421 243.895 232.645 242.932 234.609 241.651C236.252 240.579 239.37 237.324 241.559 238.726C240.998 237.073 243.636 238.604 243.72 236.475C244.144 236.795 244.568 237.114 244.992 237.434C245.246 236.876 245.175 235.998 245.515 235.513C245.982 234.846 246.211 235.238 246.609 234.863C247.055 234.443 247.444 233.319 247.979 232.999C248.53 232.67 249.178 233.063 249.77 232.775C250.673 232.336 254.555 228.056 253.898 231.724C255.567 231.157 254.28 230.638 254.488 229.526C254.907 227.296 255.927 228.901 256.942 229.095C258.605 229.414 258.571 228.039 259.498 227.041C260.344 226.128 261.936 225.72 261.388 224.135C262.014 224.473 262.147 225.134 262.22 225.776ZM162.002 178.167C160.692 179.626 159.711 179.002 158.255 178.788C158.099 178.266 157.833 178.194 157.457 178.571C157.025 178.819 156.562 178.982 156.065 179.06C154.871 179.354 153.63 179.229 152.462 179.675C152.496 179.284 152.907 178.589 152.644 178.191C151.415 179.041 150.654 179.581 149.145 179.598C147.923 179.61 145.778 178.677 144.763 179.793C144.731 179.358 144.7 178.924 144.669 178.49C144.172 178.737 143.739 179.068 143.372 179.484C143.302 178.84 143.263 178.353 142.838 177.833C142.03 179.494 141.146 179.533 139.577 178.899C139.797 178.987 138.007 177.938 138.075 178.229C137.509 175.844 146.443 176.041 147.381 175.947C149.723 175.71 152.065 175.573 154.411 175.357C156.636 175.153 158.296 174.806 159.836 176.662C159.15 173.981 165.641 174.114 162.002 178.167ZM59.5709 136.589C59.817 140.642 60.7191 144.951 59.1432 148.852C57.8763 151.987 55.3489 155.529 52.6261 157.575C47.0511 161.765 42.3261 156.638 41.5499 151.003C40.7413 145.126 42.3443 137.945 47.405 134.322C50.429 132.157 53.357 132.307 56.8382 133.018C57.6558 133.186 58.9832 133.121 59.4508 133.934C59.5605 134.124 59.4621 136.585 59.5709 136.589ZM133.614 190.592C132.651 191.078 131.643 191.363 130.794 192.024C130.5 192.254 130.399 192.777 130.086 192.97C129.517 193.323 128.703 193.089 128.109 193.38C127.127 193.86 126.422 194.547 125.255 194.989C123.521 195.646 122 196.548 120.361 197.402C117.631 198.826 114.7 200.048 111.845 201.207C110.404 201.792 106.419 202.933 106.557 205.042C106.234 205.129 105.905 204.424 105.232 204.481C104.308 204.557 103.087 205.626 102.128 205.889C100.333 206.38 98.9444 206.423 98.9444 208.711C98.3735 208.323 98.2283 207.373 97.4683 207.248C96.6129 207.106 96.2531 208.029 95.569 208.316C94.7633 208.654 93.7612 208.33 92.9633 208.689C92.6144 209.058 92.2265 209.381 91.7998 209.655C91.3657 209.705 90.9335 209.692 90.5039 209.615C88.8098 209.974 87.251 210.612 85.553 210.943C83.8982 211.266 82.7647 211.383 83.4607 213.34C81.6903 213.686 81.2581 211.808 79.2608 212.495C76.8127 213.337 74.5245 213.944 71.9691 214.457C70.6658 214.719 69.3039 215.303 67.9912 215.441C67.0546 215.539 66.1805 215.203 65.2581 215.308C64.1467 215.432 63.2534 215.947 62.1032 215.966C61.012 215.985 59.8667 215.79 58.7952 215.597C58.9468 216.029 59.1363 216.443 59.3637 216.839C58.6229 216.684 58.2808 215.793 57.6528 215.661C56.9938 215.523 56.4032 216.203 55.8544 216.052C55.6206 215.988 55.7761 215.267 55.3582 215.13C54.9768 215.005 54.8163 215.152 54.4383 215.093C54.3123 215.073 52.7319 214.988 52.4799 215.121C52.0399 215.354 52.4853 215.792 52.3977 215.857C50.9113 216.957 50.8931 216.363 50.2306 215.214C49.2576 213.527 48.0842 214.592 46.3158 214.296C44.3446 213.968 42.7917 214.837 40.852 214.713C38.7597 214.58 36.3007 213.014 34.4506 212.1C30.456 210.125 26.5603 208.257 23.2056 205.267C16.6472 199.421 11.3119 192.232 8.16612 184.002C4.78612 175.16 4.14563 165.939 4.41693 156.559C4.58014 150.918 5.03167 145.28 5.92086 139.705C6.53299 135.87 6.66121 129.054 10.9851 127.308C11.7283 136.288 9.38276 145.438 10.862 154.359C11.3075 157.047 12.3937 160.627 14.4496 162.617C17.4933 165.563 18.2055 161.304 18.4806 158.952C18.993 154.583 19.9449 150.239 20.6192 145.89C21.2925 141.544 21.7684 137.149 22.7045 132.848C23.0461 131.28 25.7994 119.797 27.8203 120.341C27.4113 128.695 26.3256 136.905 26.2828 145.289C26.266 148.652 25.9648 152.204 26.4501 155.545C26.7001 157.265 28.2658 162.309 30.9585 161.889C33.4505 161.499 30.711 157.946 30.4782 156.575C29.8619 152.948 30.6475 148.435 31.2219 144.835C32.3096 138.021 34.7356 131.043 38.7006 125.349C42.2523 120.25 47.7205 115.396 54.3084 116.295C57.1227 116.68 59.3189 117.379 60.7329 119.949C61.8428 121.966 66.2139 124.258 63.6806 126.783C61.3747 129.082 57.6449 127.242 55.0816 126.694C51.9429 126.023 48.5793 126.83 45.9545 128.669C41.451 131.824 38.8847 137.464 38.047 142.754C36.9179 149.887 39.936 168.556 51.0521 164.372C58.4369 161.592 63.9991 151.593 63.3789 143.938C63.1304 140.873 61.9324 135.056 66.1721 134.228C71.6039 133.169 72.3712 139.156 71.8209 143.047C71.0216 148.707 68.0301 153.97 64.6079 158.445C61.6253 162.345 58.1563 164.784 54.5673 168.005C53.5047 168.958 50.7942 171.102 51.2495 172.876C51.7485 174.82 56.0079 175.373 57.7134 175.692C66.1509 177.271 75.6659 175.819 84.0892 174.716C101.401 172.449 118.486 166.865 132.681 156.6C133.255 162.951 133.978 169.282 134.244 175.657C134.373 178.751 134.406 181.89 134.76 184.968C134.978 186.861 135.765 189.505 133.614 190.592ZM85.6105 212.725C84.9308 213.08 85.6657 210.93 85.4767 211.641C86.4921 212.005 86.5368 212.366 85.6105 212.725ZM157.426 135.856C158.505 134.667 161.453 131.838 162.388 134.523C162.736 133.378 162.782 131.683 164.125 133.229C164.66 131.33 170.562 131.508 172.024 131.424C176.705 131.156 181.404 131.013 186.068 130.548C195.652 129.593 205.404 130.086 215.023 130.054C217.106 130.048 219.183 129.935 221.251 130.237C223.246 130.528 225.344 131.346 227.377 131.048C229.186 130.782 230.371 130.283 232.232 130.496C234.459 130.752 236.622 130.934 238.868 130.925C248.807 130.889 258.74 131.291 268.68 131.307C270.617 131.31 272.939 130.932 274.756 131.754C275.43 132.06 276.165 133.075 276.68 133.186C277.269 133.313 276.919 132.394 277.708 132.809C278.765 133.365 277.947 135.074 277.248 135.345C277.667 135.183 276.494 135.023 276.611 135.017C276.055 135.047 275.58 135.473 274.982 135.447C274.072 135.407 273.31 134.852 272.576 134.363C272.564 134.563 272.967 135.893 272.506 135.96C272.111 136.018 271.74 134.707 271.7 134.401C269.476 136.363 267.12 135.27 264.361 135.518C262.403 135.694 258.322 137 256.957 134.957C256.9 135.391 256.725 135.772 256.434 136.098C256.044 136.692 255.707 136.642 255.422 135.945C255.325 135.949 254.374 136.156 254.356 136.155C253.687 136.101 252.819 135.861 252.138 135.803C251.085 135.713 251.279 136.48 250.44 136.492C249.981 136.499 248.813 135.837 248.014 135.796C246.63 135.723 245.216 136.311 243.851 136.133C242.911 136.011 242.061 135.246 241.139 135.216C239.99 135.178 239.617 136.054 238.706 134.823C238.52 134.773 238.404 135.497 238.33 135.509C238.348 135.506 237.464 135.637 237.359 135.678C237.178 135.747 236.47 136.071 236.255 136.074C235.791 136.083 235.538 135.751 235.046 135.743C234.23 135.729 231.628 136.446 231.701 134.938C228.792 136.016 226.31 135.596 223.325 135.851C221.955 135.969 221.094 135.785 219.791 135.533C218.159 135.218 217.075 135.614 215.448 135.694C213.883 135.771 213.39 135.109 212.07 134.512C211.549 134.276 211.205 133.965 210.566 134.096C210.202 134.171 210.461 134.784 210.353 134.826C209.792 135.043 209.401 134.813 208.631 134.866C207.211 134.963 206.645 136.15 205.186 135.035C205.67 134.977 206.156 134.917 206.641 134.858C205.245 134.266 203.402 133.964 203.74 136.12C202.55 135.952 203.58 135.142 202.995 134.851C202.41 134.562 201.754 135.047 201.017 135.286C199.07 135.918 197.447 135.604 195.417 135.491C193.11 135.362 187.714 137.244 186.063 134.801C186.013 135.316 185.46 136.75 184.724 136.683C184.485 136.661 185.153 135.138 185.229 134.977C184.85 135.784 183.121 135.937 182.269 136.355C182.365 135.921 182.46 135.488 182.555 135.055C181.764 135.897 181.38 135.383 180.449 135.665C180.042 135.788 179.453 136.627 179.105 136.678C178.7 136.208 178.19 136.005 177.577 136.071C177.168 135.969 176.76 135.949 176.352 136.011C174.719 136.13 173.229 137.038 171.604 136.419C170.197 135.883 169.654 134.505 168.815 136.698C168.594 136.308 168.373 135.918 168.153 135.529C167.881 135.952 167.608 136.375 167.336 136.797C166.272 136.101 166.206 135.697 164.982 135.953C164.694 136.068 164.399 136.051 164.098 135.905C164.025 136.12 163.954 136.334 163.881 136.548C163.853 137.088 163.692 137.266 163.401 137.083C163.156 136.995 162.935 136.861 162.737 136.682C161.927 136.744 160.892 136.957 160.022 136.839C159.687 136.794 157.583 135.684 157.426 135.856ZM182.222 121.345C182.317 121.491 182.412 121.638 182.508 121.784C181.192 122.479 180.883 122.08 180.747 120.685C181.39 120.697 181.499 121.828 182.222 121.345ZM183.037 120.526C183.67 120.806 184.396 121.355 184.993 120.619C185.395 121.787 182.412 123.38 183.037 120.526ZM187.128 121.042C188.458 121.941 185.268 121.218 185.273 121.22C185.846 120.69 186.464 120.631 187.128 121.042ZM198.566 116.03C199.022 118.331 200.28 118.266 202.311 117.196C205.272 115.635 205.772 113.08 205.978 110.029C206.176 107.104 206.534 105.971 209.551 106.582C211.656 107.008 213.438 106.65 215.56 106.591C217.825 106.529 218.624 106.875 218.806 109.206C218.988 111.54 219.404 113.312 221.097 115.089C222.82 116.894 225.116 117.973 227.354 118.983C228.504 119.502 229.585 120.061 230.858 120.173C231.351 120.217 233.919 119.892 233.973 120.705C234.013 121.316 230.457 123.038 230.08 123.244C228.431 124.14 226.786 124.945 224.985 125.488C220.841 126.739 216.446 126.812 212.154 126.737C205.233 126.615 195.668 123.688 191.529 117.547C193.875 117.042 196.221 116.536 198.566 116.03ZM197.945 96.1009C196.85 95.182 196.141 93.7935 195.232 92.7053C194.773 92.1565 194.437 91.9818 194 91.7072C193.54 91.4177 193.281 91.8272 192.898 91.147C191.907 89.3899 194.965 86.9172 191.721 86.2409C190.624 86.0116 187.983 86.8813 187.663 85.3087C187.209 83.0855 191.453 82.9403 192.451 81.8117C194.437 79.5683 193.089 75.7652 194.298 73.1773C195.443 70.7257 198.397 70.2901 200.729 69.5533C203.979 68.5276 207.267 67.9325 210.566 67.1116C212.873 66.5377 216.706 64.2323 218.845 66.2694C215.544 67.0023 217.463 68.153 219.663 68.8022C222.156 69.5385 224.797 69.8255 227.38 70.0307C230.039 70.2414 232.748 70.2817 235.374 69.7516C237.804 69.2614 240.517 67.1499 243.064 67.6909C241.651 70.1484 237.441 71.4905 234.882 72.1343C233.579 72.4621 232.744 72.3597 232.919 73.985C233.089 75.56 234.458 77.1394 234.767 78.7803C235.176 80.9519 234.819 82.9477 234.046 84.9898C233.285 86.9994 233.108 87.2617 233.773 89.1817C234.808 92.1713 232.583 95.4758 230.526 97.6469C222.207 106.426 206.287 103.1 197.945 96.1009ZM219.083 43.6347C219.088 43.6903 219.117 43.7243 219.083 43.6347V43.6347ZM221.674 65.7891C221.329 66.0465 219.343 66.5869 219.426 65.8107C219.537 64.7702 221.327 65.1463 221.674 65.7891ZM226.202 44.7756C225.736 44.4281 224.43 44.5708 225.385 43.2537C225.695 43.8331 225.949 44.3041 226.202 44.7756ZM194.871 36.4498C195.465 34.9063 196.123 33.4701 196.391 31.8266C196.556 30.8142 196.227 29.6581 197.643 29.4991C195.839 28.7126 195.821 25.6078 195.714 23.9984C195.568 21.782 194.867 18.8144 195.842 16.7515C196.841 14.6324 198.191 14.6674 198.598 17.1912C198.757 18.1794 198.147 18.4989 198.033 19.1871C197.806 20.5485 198.257 20.25 199.135 19.2129C199.498 20.267 199.637 21.8511 201.112 21.7841C201.014 21.499 200.449 20.8701 200.638 20.516C200.928 19.9722 202.345 20.8031 202.524 20.9289C203.819 21.8341 204.099 22.6604 203.176 23.802C204.454 23.9398 203.382 25.0586 204.207 25.3499C205.465 25.7949 204.621 23.6873 204.485 23.3167C205.25 23.6155 205.507 23.957 205.993 24.5619C206.277 24.9793 206.537 25.4129 206.77 25.8613C207.031 26.6803 207.568 26.8851 208.381 26.4771C210.011 26.9884 212.261 26.9082 213.722 27.8025C214.389 28.2105 214.63 29.1039 215.188 29.443C215.815 29.8249 216.655 29.6517 217.329 29.8914C217.083 30.4515 217.283 30.7546 217.927 30.8019C218.428 30.8477 218.913 30.9604 219.382 31.14C219.733 30.8757 220.115 30.6665 220.527 30.515C220.804 31.0027 221.195 31.1233 221.701 30.8777C223.205 31.1592 223.927 31.7277 224.882 32.5777C225.739 33.3406 225.041 33.4026 225.981 33.3347C226.358 33.3076 227.02 32.6673 227.883 32.7923C228.38 32.8888 228.859 33.0423 229.321 33.2515C229.819 33.6782 230.35 33.7319 230.91 33.413C231.82 33.8574 231.909 34.6459 233.019 34.7537C234.246 34.8733 233.852 33.3431 234.694 35.5008C235.829 33.2131 236.245 36.8578 237.417 37.1521C238.631 37.4573 238.762 36.4729 239.801 37.5483C240.112 37.8707 240.095 38.4032 240.444 38.7448C241.017 39.3039 241.792 39.1922 242.29 39.9551C242.012 39.5294 242.356 41.4642 242.35 41.4002C242.427 42.2536 241.668 43.2099 243.223 43.1371C243.206 43.2267 242.459 44.3149 242.313 44.1919C242.278 44.0678 242.247 43.9418 242.224 43.8144C242.057 43.8862 241.983 44.9228 242.013 45.1059C242.145 45.1265 242.199 45.0286 242.175 44.812C241.92 45.6113 242.305 46.1193 241.814 46.8782C241.5 47.363 240.641 47.7277 240.184 48.027C239.082 48.7495 238.004 49.4745 236.928 50.2438C234.421 52.0373 231.615 54.2005 228.458 54.5746C230.043 53.0178 239.165 47.1263 234.59 45.4351C233.741 45.1216 232.196 44.8248 231.309 44.7589C230.205 44.6772 229.064 45.3091 227.846 44.9144C226.377 44.4394 226.93 43.0584 226.033 42.5627C224.127 41.5119 224.577 43.9837 223.978 44.6309C223.347 43.9699 223.482 43.648 222.487 43.5884C221.477 43.5274 221.237 44.4611 220.058 43.8793C218.435 43.078 219.294 41.4814 216.991 41.444C217.029 41.0935 217.363 40.1141 216.924 39.8409C216.331 40.6092 216.79 41.4686 216.24 42.2083C215.964 42.5795 215.367 42.8753 214.931 42.9954C213.91 43.2759 213.764 43.8129 213.931 42.2753C213.174 43.6386 210.853 43.078 209.472 42.9407C207.228 42.7178 204.843 42.293 202.691 41.5734C200.701 40.9075 199.639 39.7637 197.997 38.7227C197.377 38.3289 197.081 38.4795 196.191 38.2349C195.313 37.9937 194.457 37.5262 194.871 36.4498ZM199.606 12.3086C199.945 12.1044 200.188 15.1504 199.778 15.7195C199.026 14.5303 197.693 12.7859 199.606 12.3086ZM200.688 11.0936C201.778 10.1075 201.021 12.6545 200.821 13.0818C200.418 12.823 200.014 12.5642 199.611 12.3055C200.125 11.9895 200.254 11.4869 200.688 11.0936ZM241.796 6.98884C251.862 9.10131 261.837 13.0498 269.91 19.5479C277.264 25.4666 282.455 33.8643 285.365 42.797C288.385 52.0688 287.371 62.3556 280.184 69.4519C276.398 73.1896 271.399 75.4448 266.635 77.6454C264.352 78.6996 262.001 79.5777 259.709 80.6078C258.063 81.3476 256.054 82.5308 254.175 82.3261C255.134 81.3176 256.524 81.2969 257.684 80.6807C259.085 79.935 260.229 78.5047 261.437 77.4829C262.636 76.4685 265.296 73.2742 267.139 74.0475C266.883 72.3455 268.822 71.5555 269.696 70.4333C270.619 69.2462 270.686 67.8577 272.389 67.4694C270.56 66.0381 271.12 63.3394 271.518 61.3914C272.027 58.8999 272.262 56.6127 272.463 54.0775C272.824 49.507 273.116 43.6844 270.59 39.6667C269.771 38.3619 268.727 37.1629 267.997 35.8074C267.115 34.1744 267.309 32.7372 267.309 30.9466C265.699 32.0294 265.359 29.822 264.678 28.746C264.167 27.9388 263.496 27.488 263.332 26.4721C263.212 25.7334 264.014 25.6083 263.574 24.8336C263.035 25.2407 262.82 25.8717 262.547 26.4574C262.049 26.2585 262.636 25.5655 262.351 25.3406C262.343 25.3342 261.383 24.9173 261.43 24.9774C260.813 24.1943 260.614 22.8949 260.311 21.963C259.18 22.5362 259.391 22.4686 258.129 21.5109C257.906 21.3423 256.795 20.5681 256.691 20.315C256.202 19.1314 257.058 19.8325 256.819 19.0979C256.131 16.9881 252.274 17.3871 251.968 14.2256C250.087 15.42 249.369 13.7277 248.257 12.524C247.117 11.291 245.206 10.8168 245.308 8.86107C244.716 9.06365 244.124 9.2657 243.532 9.46725C243.84 7.66259 241.159 7.77752 240.188 6.86205C240.727 6.86874 241.263 6.91102 241.796 6.98884ZM243.329 118.764C244.262 117.93 243.979 119.04 244.579 118.913C245.093 118.805 245.194 118.417 245.686 118.298C247.714 117.807 250.747 118.423 252.88 118.317C255.35 118.195 259.585 118.708 260.762 121.599C261.471 123.339 260.389 122.747 259.196 122.618C258.272 122.518 257.45 122.705 256.535 122.695C256.083 122.765 255.632 122.758 255.183 122.674C254.964 122.53 254.834 122.327 254.795 122.065C253.522 121.872 252.17 122.625 250.76 122.663C248.878 122.713 247.206 122.352 245.777 121.082C245.209 121.929 244.822 122.349 243.8 122.444C243.773 122.446 242.774 122.045 242.62 122.004C242.416 121.951 241.898 122.38 241.504 122.258C242.203 121.143 242.305 119.679 243.329 118.764ZM371.822 128.823C372.154 127.668 372.432 126.497 372.735 125.335C377.378 130.621 381.442 137.699 383.271 144.479C384.459 148.884 386.308 156.867 380.645 159.14C376.031 160.991 373.459 154.356 372.292 151.088C369.715 143.873 369.715 136.163 371.822 128.823ZM164.051 45.9849C164.111 45.9726 161.045 47.7558 162.055 46.3122C162.461 45.7314 164 45.3234 164.682 45.3234L164.051 45.9849ZM161.102 46.7404C160.747 47.0387 160.389 47.3335 160.028 47.6244C159.681 47.0761 159.333 46.5273 158.986 45.979C159.67 45.6906 162.576 45.474 161.102 46.7404ZM158.941 102.179C158.3 101.744 157.791 101.975 157.598 102.705C157.598 101.979 157.976 100.293 158.557 100.096C158.933 99.969 157.309 98.049 157.766 97.5465C158.926 98.2109 158.231 98.8473 158.571 99.7052C158.725 100.092 159.185 100.458 159.286 100.756C159.457 101.261 160.15 102.996 158.941 102.179ZM155.798 97.858C155.141 98.0263 156.292 99.1106 156.291 99.59C156.29 99.9528 155.855 100.231 155.675 100.727C155.286 101.801 155.955 102.527 154.853 103.347C154.853 100.993 153.273 94.7533 156.309 93.606C154.828 92.4395 156.045 91.0929 157.206 92.4892C158.322 93.8314 157.611 97.3944 155.798 97.858ZM154.217 88.566C153.62 86.4496 151.823 85.7094 149.77 85.8349C149.848 84.7511 150.669 83.1889 151.262 85.1419C151.506 84.5645 151.675 83.8115 152.231 83.4291C153.168 86.365 157.837 87.9872 154.93 91.1687C154.692 90.3015 154.461 89.4323 154.217 88.566ZM148.791 85.9924C137.979 86.7764 122.8 89.0198 114.148 80.7324C108.506 75.3286 108.807 66.9137 113.366 60.91C115.968 57.4839 119.52 55.0717 123.087 52.7736C124.463 51.8862 125.629 51.301 127.14 50.7911C127.384 50.7645 127.615 50.8192 127.83 50.955C127.915 50.5898 128.12 50.3201 128.448 50.1434C129.031 49.8313 129.863 49.7196 130.199 49.0714C129.84 50.2891 129.655 51.5427 129.524 52.8022C129.233 52.4631 128.942 52.124 128.651 51.7848C128.408 54.0794 126.017 52.6905 124.59 52.9769C125.53 54.2783 126.202 54.7508 126.283 56.4705C125.583 55.1775 124.119 54.3275 122.757 53.9111C123.497 56.0979 124.019 57.3958 123.275 59.7937C122.376 59.2804 122.315 58.0474 121.225 57.7521C120.937 59.1819 120.886 60.7687 120.517 62.1562C117.725 60.8824 117.997 64.313 119.119 66.0105C119.715 66.9137 120.008 67.9591 120.54 68.8259C121.845 70.9526 120.853 67.7726 122.304 67.9232C121.978 70.1661 121.865 70.3895 123.506 72.032C125.108 73.6335 125.939 75.8558 127.652 77.3604C128.148 76.7264 127.368 76.063 127.3 75.4561C128.894 75.7234 129.641 77.322 131.173 75.906C131.842 77.2088 132.565 78.6435 134.166 78.9108C133.108 76.8992 136.198 78.2635 136.99 78.549C137.591 78.7656 138.668 78.9378 138.9 79.021C140.206 79.4925 139.311 78.6465 140.103 80.1924C141.267 79.841 141.706 78.8758 143.098 79.6914C144.229 80.3549 144.232 81.4908 144.49 82.6548C144.76 81.8934 145.032 81.1325 145.331 80.3814C145.634 80.5094 146.909 81.9116 146.769 81.918C149.751 81.7719 149.646 83.6235 148.791 85.9924ZM133.61 48.0354C134.209 47.615 134.94 48.1746 135.612 48.024C136.544 47.8163 137.072 47.019 138.112 46.9333C137.823 47.8582 137.28 47.7715 136.82 48.4975C136.664 48.7451 136.745 49.3387 136.606 49.4814C135.441 50.675 135.038 49.7009 133.848 48.7973C133.952 49.887 134.161 50.231 133.135 50.5234C132.205 50.7887 130.671 49.8126 130.203 49.064C130.598 48.2736 132.894 48.5384 133.61 48.0354ZM141.029 46.3319C142.038 46.4284 140.822 49.4071 139.376 46.5179C139.92 46.3993 140.472 46.3373 141.029 46.3319ZM146.22 45.7565C147.812 45.4317 153.123 43.9182 153.714 46.3964C153.82 46.3349 154.215 44.9356 154.399 45.1063C155.134 45.7905 155.216 46.6971 155.16 47.647C154.271 45.7954 154.587 47.4221 153.985 47.2951C153.828 47.2616 153.587 47.5555 153.189 47.4344C152.667 47.2749 152.293 46.1641 151.963 45.788C151.414 46.5711 150.734 47.5801 149.635 47.5122C148.857 47.4639 147.603 45.4612 148.611 47.6539C148.019 47.4585 147.334 47.016 146.675 47.1046C145.937 47.2045 145.554 47.9325 144.863 48.0501C143.329 48.31 143.098 46.8349 142.103 46.0336C143.476 45.9539 144.865 46.0326 146.22 45.7565ZM155.853 45.7324C155.965 45.2245 157.358 45.0192 157.713 45.1807C158.579 45.5739 158.258 46.0932 158.099 46.957C157.457 46.6528 156.814 46.3491 156.172 46.0449C157.131 47.5894 155.393 47.8134 155.853 45.7324ZM425.541 136.195C425.428 132.494 425.32 128.729 424.382 125.125C423.725 122.604 422.112 118.082 419.061 117.644C414.46 116.984 411.912 126.078 410.622 129.2C410.364 125.524 410.59 121.612 409.202 118.124C408.09 115.329 405.282 112.681 402.864 115.82C400.712 118.615 400.299 122.739 399.732 126.1C398.998 130.456 398.557 134.845 398.021 139.227C395.919 135.166 395.552 130.517 393.891 126.296C392.324 122.312 389.857 118.508 387.481 114.965C385.541 112.071 383.18 109.351 380.141 107.582C377.495 106.042 372.868 104.377 370.346 106.933C368.242 109.067 368.572 111.922 368.681 114.615C368.731 115.814 368.919 116.636 367.864 117.24C367.346 117.537 366.536 117.384 365.966 117.542C365.049 117.799 364.345 118.233 363.57 118.809C358.128 122.854 355.62 130.142 354.844 136.64C353.861 144.873 357.07 151.931 359.832 159.465C360.272 160.665 361.67 163.212 361.477 164.552C361.266 166.021 359.422 166.059 358.179 166.089C354.422 166.182 350.496 165.902 346.758 165.552C337.86 164.72 328.968 160.436 321 156.611C319.547 155.913 317.49 155.513 316.303 154.414C315.188 153.381 314.894 151.725 313.931 150.54C311.568 147.632 310.062 145.151 306.583 143.394C303.039 141.606 299.423 139.952 295.966 137.993C291.691 135.569 287.741 132.499 283.644 129.785C276.03 124.743 268.467 119.215 260.395 114.927C256.644 112.934 252.452 112.612 248.558 110.98C244.765 109.391 240.11 109.389 236.152 110.393C234.224 110.882 232.912 112.04 231.139 112.797C229.062 113.683 227.366 112.705 225.538 111.647C222.744 110.03 219.975 107.396 223.954 105.652C225.303 105.06 226.994 104.836 228.173 103.906C229.429 102.915 230.438 101.086 231.46 99.844C233.731 97.0833 235.088 93.9058 238.413 92.189C242.09 90.2906 246.448 89.7738 250.368 88.533C254.616 87.1894 258.775 85.5912 262.943 84.0221C270.454 81.1955 278.261 78.1435 283.658 71.9202C288.313 66.5519 290.341 59.6219 290.153 52.5837C289.769 38.1955 282.062 23.5928 271.003 14.5968C257.443 3.56557 240.192 -0.112888 223.063 0.0799018C215.024 0.170661 205.431 1.22271 198.723 6.10689C192.93 10.3255 191.966 17.7041 192.828 24.3646C193.177 27.0677 194.373 30.6351 192.466 33.0167C191.399 34.3496 189.484 34.6794 188.047 35.5102C186.241 36.5541 184.648 37.5547 182.603 38.1065C173.914 40.4532 164.762 39.6362 155.878 39.5062C141.079 39.2897 125.91 43.2966 114.87 53.7245C105.955 62.1449 103.281 78.0234 114.154 86.2321C122.94 92.8638 136.719 92.1344 147.077 90.9777C150.289 90.6184 152.498 90.0967 152.506 94.0268C152.514 98.3197 151.803 102.806 152.898 107.021C154.623 113.658 161.001 113.816 166.639 112.387C169.615 111.633 172.491 110.499 175.316 109.311C179.46 107.569 183.259 105.008 187.352 103.269C190.126 102.091 192.204 105.902 194.665 103.26C195.119 102.772 195.203 102.044 195.889 101.794C196.964 101.403 198.767 102.775 199.71 103.209C201.122 103.859 202.544 104.337 203.109 105.902C203.636 107.366 203.405 109.694 202.899 111.138C201.801 114.277 198.844 113.657 196.145 113.447C191.436 113.08 186.759 112.303 182.052 111.977C177.829 111.685 173.875 112.946 170.232 115.029C162.582 119.403 156.323 126.36 149.689 132.081C146.275 135.025 142.975 138.206 139.262 140.769C137.648 141.885 135.9 142.909 134.497 144.295C133.105 145.669 132.952 146.919 132.476 148.748C131.628 152.004 127.416 153.596 124.784 155.314C121.062 157.743 117.115 159.457 112.942 160.948C104.105 164.105 95.1979 166.309 85.9585 167.938C81.4348 168.736 76.949 169.261 72.3815 169.691C68.444 170.062 64.2575 171.275 60.3249 170.307C61.4574 168.469 63.4646 167.366 65.0278 165.946C67.0428 164.116 68.7566 161.946 70.2819 159.699C73.2502 155.322 75.3327 150.626 75.8106 145.318C76.2418 140.541 75.7476 134.826 72.8649 130.79C71.8692 129.395 69.8989 129.016 69.0081 127.76C68.1217 126.512 68.4598 124.363 67.9745 122.907C66.7396 119.205 63.0743 114.617 59.8485 112.467C56.349 110.134 51.2298 109.277 47.1874 110.492C39.6983 112.745 35.0978 120.749 31.6707 127.217C29.7989 123.278 32.9337 117.434 29.2767 114.208C26.1922 111.487 23.7441 116.758 22.7124 119.013C17.8698 129.6 16.7698 140.828 14.741 152.155C13.9141 151.34 14.3379 149.248 14.4156 148.276C14.5603 146.466 14.5465 144.691 14.5505 142.873C14.5603 138.282 15.4138 133.67 15.0225 129.082C14.7966 126.43 13.951 120.839 10.0984 121.72C6.83111 122.467 4.78454 127.062 3.75794 129.871C2.27719 133.923 1.93532 137.933 2.02751 142.213C2.12944 146.942 1.22844 151.594 1.01015 156.317C0.585889 165.49 1.00499 174.583 3.63696 183.436C7.9468 197.933 17.8565 209.977 31.0821 217.251C38.3689 221.259 46.4526 223.795 54.7637 224.34C59.2677 224.635 63.6157 224.099 68.0813 223.634C72.4878 223.174 76.9175 222.961 81.3167 222.422C91.1132 221.22 100.659 218.119 109.564 213.946C114.251 211.749 118.659 209.052 123.269 206.709C125.119 205.77 126.369 204.594 127.948 203.288C129.513 201.993 129.946 201.891 131.727 201.891C131.204 200.494 132.728 200.064 133.406 199.18C133.368 199.609 133.33 200.037 133.292 200.465C133.809 199.344 134.29 199.355 134.736 200.498C135.176 199.218 135.502 197.902 136.033 196.654C138.065 197.683 137.894 200.128 140.612 198.343C142.85 196.874 144.908 195.14 147.189 193.701C152.386 190.42 156.867 186.152 162.079 182.909C162.079 186.068 162.302 189.253 161.879 192.395C161.478 195.383 160.363 198.176 159.475 201.037C157.839 206.314 157.726 211.954 155.913 217.178C155.163 219.342 153.209 221.151 152.648 223.257C152.078 225.406 153.397 227.128 151.186 228.538C149.626 229.533 147.678 229.953 145.951 230.554C143.318 231.473 140.818 232.768 138.254 233.866C126.23 239.018 114.502 244.266 103.362 251.193C92.7896 257.767 82.056 264.556 72.3441 272.364C63.9154 279.139 55.3951 287.9 53.3432 298.954C51.3523 309.675 56.6571 321.184 67.3086 324.715C72.8466 326.55 79.1078 326.323 84.8752 326.403C91.0812 326.488 97.6578 324.993 103.759 323.91C110.203 322.768 116.537 320.979 122.999 319.958C129.2 318.979 134.886 316.79 140.986 315.441C147.481 314.005 154.144 313.225 160.676 311.933C163.617 311.351 166.498 310.492 169.446 309.954C172.675 309.364 175.938 309.143 179.135 308.362C185.336 306.847 191.272 304.404 197.5 302.994C200.3 302.36 203.057 301.511 205.858 300.918C208.436 300.373 210.446 298.923 213.03 300.114C215.118 301.076 216.783 302.725 218.76 303.873C221.322 305.363 224.024 306.698 226.697 307.98C232.065 310.556 237.633 312.337 243.247 314.271C249.144 316.303 254.934 318.62 261.043 319.962C267.306 321.337 273.695 321.72 280.001 322.808C292.916 325.036 305.721 326.036 318.83 326.117C325.456 326.159 332.081 325.373 338.692 325.466C344.544 325.548 349.632 326.867 354.984 323.756C363.535 318.785 373.453 311.297 373.242 300.42C373.051 290.569 367.142 281.157 361.6 273.387C354.869 263.951 345.271 257.307 335.866 250.798C325.841 243.861 314.581 239.069 304.045 233.014C298.656 229.917 293.687 226.586 287.836 224.385C285.043 223.335 282.318 222.118 279.558 220.987C277.337 220.077 274.13 219.574 272.229 218.064C271.043 217.122 270.929 215.696 270.616 214.296C269.922 211.197 268.832 208.258 267.776 205.269C265.736 199.497 264.38 193.619 263.503 187.567C262.668 181.797 260.813 175.796 261.773 169.932C268.092 176.044 274.586 181.92 281.052 187.871C283.475 190.101 285.853 192.378 288.288 194.594C290.117 196.258 292.404 198.73 294.953 199.224C298.208 199.855 297.019 196.254 299.254 195.696C300.62 195.355 304.74 198.826 305.82 199.511C312.665 203.857 320.246 206.611 327.775 209.57C335.67 212.672 343.79 215.427 352.286 216.207C360.134 216.93 368.158 216.003 375.731 213.865C390.812 209.607 401.91 199.505 410.055 186.41C419.335 171.488 426.088 154.008 425.541 136.195Z" fill="black"/>
<path fill-rule="evenodd" clip-rule="evenodd" d="M195.045 103.664C195.043 103.669 195.02 103.717 195.02 103.717C195.048 103.698 195.056 103.68 195.045 103.664Z" fill="black"/>
<path fill-rule="evenodd" clip-rule="evenodd" d="M195.773 103.857C195.717 103.382 195.595 102.917 195.408 102.461C194.909 103.252 194.462 103.592 195.118 104.43C195.336 104.239 195.554 104.048 195.773 103.857Z" fill="black"/>
<path fill-rule="evenodd" clip-rule="evenodd" d="M230.55 216.983C231.109 216.388 230.132 216.164 229.761 216.156C229.798 216.794 229.482 218.322 230.354 218.617C230.145 218.04 230.21 217.496 230.55 216.983Z" fill="black"/>
<path fill-rule="evenodd" clip-rule="evenodd" d="M215.818 92.6384C214.858 94.492 216.979 95.0668 218.206 94.1716C219.13 93.4982 219.676 91.782 219.828 90.681C220.318 87.1185 217.825 83.7273 216.582 80.566C216.261 79.749 215.821 76.9465 214.787 76.8697C213.598 76.7811 213.51 79.3621 213.495 80.0281C213.449 82.0362 213.981 84.0817 214.604 85.9771C215.275 88.0207 216.939 90.4737 215.818 92.6384Z" fill="black"/>
<path fill-rule="evenodd" clip-rule="evenodd" d="M220.383 85.2049C224.072 88.4897 227.023 83.0186 226.765 79.7824C226.702 78.9807 226.16 76.0241 224.639 77.1C223.875 77.6404 224.527 79.397 224.162 80.1683C222.398 83.907 220.699 78.1075 219.511 77.6522C218.065 77.0975 217.92 78.9969 217.922 80.0123C217.925 82.0278 218.885 83.87 220.383 85.2049Z" fill="black"/>
<path fill-rule="evenodd" clip-rule="evenodd" d="M206.992 85.7153C207.861 84.347 208.929 82.5116 209.047 80.8721C209.23 78.3241 207.746 78.5367 206.523 80.3145C205.66 81.5706 205.013 83.7007 203.107 83.1712C200.754 82.5185 201.473 79.3547 200.156 77.8516C196.831 82.3187 203.124 91.8036 206.992 85.7153Z" fill="black"/>
<path fill-rule="evenodd" clip-rule="evenodd" d="M211.976 99.3858C213.352 99.683 216.938 99.5738 215.696 97.4672C214.129 94.8143 208.917 98.7243 211.976 99.3858Z" fill="black"/>
<path fill-rule="evenodd" clip-rule="evenodd" d="M260.167 20.2657C260.419 19.5158 260.073 19.3796 259.472 18.7891C258.904 19.3139 259.632 19.8659 260.167 20.2657Z" fill="black"/>
<path fill-rule="evenodd" clip-rule="evenodd" d="M285.825 156.084C286.732 156.229 287.024 155.749 286.7 154.644C285.268 154.552 284.977 155.031 285.825 156.084Z" fill="black"/>
<path fill-rule="evenodd" clip-rule="evenodd" d="M236.269 40.2239C237.27 40.6816 236.886 41.6207 236.869 42.4141C237.385 41.854 238.426 40.8292 238.002 40.0245C237.349 38.7837 235.642 39.9374 236.269 40.2239Z" fill="black"/>
<path fill-rule="evenodd" clip-rule="evenodd" d="M202.172 24.6043C202.019 24.3065 201.867 24.0087 201.714 23.711C201.092 24.21 200.133 25.5291 201.121 26.1719C201.526 25.6802 201.876 25.158 202.172 24.6043Z" fill="black"/>
<path fill-rule="evenodd" clip-rule="evenodd" d="M214.182 33.3598C215.428 34.3363 214.83 31.3384 214.793 31.0938C214.608 31.4452 213.553 32.8661 214.182 33.3598Z" fill="black"/>
<path fill-rule="evenodd" clip-rule="evenodd" d="M213.492 31.8375C213.397 31.5899 213.301 31.3418 213.206 31.0938C212.701 31.5614 212.083 32.5157 212.917 33.0625C213.146 32.6796 213.337 32.2711 213.492 31.8375Z" fill="black"/>
<path fill-rule="evenodd" clip-rule="evenodd" d="M221.402 42.1321C221.504 42.2256 221.605 42.3196 221.707 42.4141C222.118 41.5853 221.651 40.9631 220.875 40.9375C220.93 41.4026 221.106 41.8008 221.402 42.1321Z" fill="black"/>
<path fill-rule="evenodd" clip-rule="evenodd" d="M188.029 135.356C188.523 135.02 188.971 134.636 189.375 134.205C187.913 133.311 188.789 135.249 187.029 134.059C186.65 134.583 187.269 135.756 188.029 135.356Z" fill="black"/>
<path fill-rule="evenodd" clip-rule="evenodd" d="M249.472 216.648C250.028 215.795 250.129 215.82 249.369 215.172C248.736 216.227 248.801 215.955 249.472 216.648Z" fill="black"/>
<path fill-rule="evenodd" clip-rule="evenodd" d="M133.266 80.8426C133.568 81.1581 133.871 81.4741 134.174 81.7891C134.315 81.3761 135.086 80.2087 134.562 79.8203C134.13 80.1609 133.698 80.5015 133.266 80.8426Z" fill="black"/>
<path fill-rule="evenodd" clip-rule="evenodd" d="M144.032 83.9655C143.548 83.8848 142.392 83.5324 142.125 83.9818C142.832 84.5611 144.427 84.032 144.032 83.9655Z" fill="black"/>
</svg>
