<svg width="750" height="750" viewBox="0 0 750 750" fill="none" xmlns="http://www.w3.org/2000/svg">
<path fill-rule="evenodd" clip-rule="evenodd" d="M332.808 626.428C303.621 641.052 269.403 642.242 237.024 638.078C174.34 630.016 111.038 599.627 79.8703 544.647C66.4261 520.931 59.636 494.04 54.9054 467.192C48.5876 431.337 46.0354 392.791 61.9115 360.027C75.2954 332.406 100.133 312.307 124.879 294.15C150.814 275.12 178.909 256.619 210.851 252.816C302.993 250.991 293.659 285.604 389.887 230.553C417.861 214.549 501.031 242.02 529.132 250.991C557.233 259.961 612.686 287.636 650.292 320.511C666.011 334.253 680.51 349.98 689.345 368.898C702.572 397.223 701.93 430.22 695.759 460.866C689.534 491.777 676.019 523.927 648.567 539.44C636.164 546.449 621.863 549.455 607.664 550.605C548.363 555.409 485.283 530.092 431.017 554.48C393.867 571.175 369.222 608.184 332.808 626.428Z" fill="#3B82F6"/>
<path fill-rule="evenodd" clip-rule="evenodd" d="M110.458 371.989C121.601 361.014 132.073 349.697 139.122 339.834C148.823 326.257 163.048 313.348 179.904 310.858C199.56 307.953 217.613 321.505 231.901 335.313C251.641 354.388 269.357 375.557 284.655 398.35C278.518 399.149 265.295 408.302 247.722 408.012C237.378 407.841 225.019 398.622 213.073 398.007C204.775 397.579 195.717 406.264 187.362 405.602C172.753 404.444 159.089 393.688 146.765 391.742C139.424 390.583 129.516 397.881 123.872 396.417C108.363 392.394 103.767 378.58 110.458 371.989Z" fill="white"/>
<path fill-rule="evenodd" clip-rule="evenodd" d="M444.598 542.754C492.757 526.875 544.943 545.278 595.648 544.598C618.112 544.297 642.125 539.34 657.59 523.043C623.717 503.1 598.007 471.385 579.28 436.825C560.552 402.266 548.24 364.668 536.028 327.306C519.96 318.144 499.278 333.638 481.641 328.066C472.629 325.218 461.865 317.483 455.398 324.376C451.494 328.536 444.223 326.089 440.425 321.83C436.628 317.572 434.513 311.912 430.231 308.142C425.949 304.371 417.822 303.896 415.643 309.169C411.871 318.297 407.895 327.725 400.663 334.451C393.431 341.177 381.965 344.424 373.494 339.345C366.878 335.378 363.755 327.658 359.901 320.975C356.047 314.292 354.543 308.283 346.879 309.169C320.991 363.713 301.664 417.332 269.816 468.625C256.131 490.666 179.562 574.687 135.071 563.859C90.5804 553.03 93.8813 544.598 78.8567 531.283C94.5074 563.124 122.155 588.176 153.723 604.369C185.292 620.562 220.649 628.348 256.017 631.16C269.973 632.27 284.127 632.619 297.864 629.92C354.161 618.855 390.11 560.72 444.598 542.754Z" fill="white"/>
<path fill-rule="evenodd" clip-rule="evenodd" d="M396.319 330.011C401.252 323.637 404.335 315.969 409.418 309.714C414.501 303.459 422.755 298.611 430.444 301.026C437.6 303.274 441.536 310.741 444.727 317.529C446.329 320.937 451.198 321.2 454.707 319.834C458.216 318.467 461.371 315.996 465.115 315.588C472.861 314.742 478.695 322.766 486.264 324.614C497.528 327.363 508.851 315.868 519.983 319.112C524.693 320.485 528.771 324.423 533.666 324.087C524.251 301.519 517.16 278.019 507.275 255.653C497.391 233.287 484.355 211.7 465.377 196.28C463.426 194.694 461.29 193.124 458.796 192.806C456.302 192.488 453.413 193.905 452.976 196.381C451.677 203.742 450.377 211.103 449.078 218.464C448.435 222.108 446.736 226.683 443.036 226.614C440.571 226.568 438.678 224.151 438.339 221.709C437.999 219.266 438.818 216.828 439.624 214.498C442.151 207.197 444.678 199.897 447.205 192.596C429.868 198.852 414.84 210.464 402.383 224.049C389.926 237.633 379.851 253.203 370.195 268.902C361.927 282.344 353.918 295.945 346.173 309.695C356.559 308.221 365.605 316.749 371.481 325.439C374.997 330.638 379.184 336.832 385.46 336.809C389.885 336.793 393.61 333.51 396.319 330.011Z" fill="white"/>
<path fill-rule="evenodd" clip-rule="evenodd" d="M237.024 638.078C269.403 642.242 303.621 641.052 332.808 626.428C350.354 617.637 365.167 604.49 379.963 591.358C395.875 577.236 411.767 563.131 431.017 554.48C464.734 539.327 501.853 543.363 539.354 547.44C562.21 549.924 585.208 552.425 607.664 550.605C621.863 549.455 636.164 546.449 648.567 539.44C676.019 523.927 689.534 491.777 695.759 460.866C701.93 430.22 699.991 422.067 691.108 419.135C682.322 407.501 673.362 395.692 661.61 387.065C649.857 378.437 634.697 373.29 620.533 376.741C602.986 381.016 591.081 396.904 581.164 411.999C599.107 395.164 623.61 377.076 645.945 387.393C662.61 395.092 677.122 411.15 688.06 423.252C689.419 424.757 690.724 426.2 691.97 427.558C691.97 451.105 680.696 492.308 660.926 518.046C618.216 491.369 589.323 447.111 568.968 401.051C558.01 376.255 549.148 350.625 540.284 324.99C532.683 303.006 525.08 281.018 516.154 259.552C503.133 228.239 485.393 196.132 455.018 181.052C434.681 187.542 400.646 210.281 388.023 227.497C357.849 268.649 334.239 313.953 310.614 359.287C291.246 396.451 271.867 433.636 248.853 468.57C231.437 495.005 211.151 520.811 183.413 536.068C155.675 551.325 118.917 553.804 93.5948 534.805C63.2774 512.058 59.0404 468.9 58.4451 431.003C58.3935 427.72 58.6425 423.855 61.3968 422.067C98.0157 398.299 130.118 367.598 155.495 332.076C166.143 317.172 188.909 315.812 205.303 323.98C221.466 332.034 232.941 346.89 243.992 361.197L244.466 361.81C255.664 376.304 267.797 391.188 284.655 398.35C269.357 375.557 251.641 354.388 231.901 335.313C217.613 321.505 199.56 307.954 179.904 310.858C163.048 313.348 148.823 326.257 139.122 339.834C120.231 366.269 76.7381 403.148 61.6841 415.913L61.6838 415.914C58.7049 418.44 56.8397 420.021 56.499 420.391C48.0451 429.562 51.5639 448.842 54.2095 463.337L54.2096 463.337C54.4522 464.666 54.6874 465.955 54.9054 467.193C59.636 494.04 66.4261 520.931 79.8704 544.647C111.039 599.627 174.34 630.016 237.024 638.078ZM444.598 542.754C475.483 532.571 508.023 536.486 540.767 540.427C559.082 542.63 577.46 544.842 595.648 544.598C618.112 544.297 642.125 539.34 657.59 523.043C623.717 503.1 598.007 471.385 579.28 436.825C560.552 402.266 548.24 364.668 536.028 327.306C527.402 322.388 517.446 324.575 507.346 326.794C498.632 328.708 489.81 330.646 481.641 328.066C479.438 327.37 477.13 326.381 474.806 325.386C467.623 322.311 460.284 319.168 455.398 324.376C451.494 328.536 444.223 326.089 440.425 321.83C438.781 319.986 437.452 317.879 436.125 315.776L436.125 315.776C434.389 313.023 432.658 310.279 430.231 308.142C425.949 304.371 417.822 303.896 415.643 309.169C411.871 318.297 407.895 327.725 400.663 334.451C393.431 341.177 381.965 344.424 373.494 339.345C368.132 336.13 365.064 330.449 362.042 324.854C361.335 323.545 360.631 322.241 359.901 320.975C356.047 314.292 349.663 307.61 341.999 308.496C316.111 363.039 287.152 416.125 255.305 467.418C241.619 489.459 227.135 511.48 207.534 528.477C187.934 545.475 162.338 557.101 136.502 554.737C115.653 552.829 96.7146 542.211 78.8567 531.283C94.5074 563.124 122.155 588.176 153.723 604.369C185.292 620.562 220.649 628.348 256.017 631.16C269.973 632.27 284.127 632.619 297.864 629.92C327.999 623.997 352.303 604.588 376.741 585.072C397.958 568.128 419.276 551.103 444.598 542.754ZM401.568 316.241C399.627 319.596 397.686 322.952 395.319 326.011C392.61 329.51 388.885 332.793 384.46 332.809C378.186 332.832 374.001 326.643 370.486 321.445L370.481 321.439C364.605 312.749 355.559 304.221 345.173 305.695C352.918 291.945 360.927 278.344 369.195 264.902C378.851 249.203 388.926 233.633 401.383 220.049C413.84 206.464 440.425 186.575 457.796 188.806C474.972 191.012 496.443 230.566 506.327 252.932C511.804 265.324 516.407 277.671 521.025 290.058C524.741 300.027 528.468 310.023 532.666 320.087C529.637 320.295 526.921 318.866 524.175 317.422C522.483 316.532 520.779 315.635 518.983 315.112C513.331 313.465 507.631 315.617 501.913 317.776C496.369 319.869 490.81 321.967 485.264 320.614C482.09 319.839 479.22 317.978 476.387 316.14C472.465 313.596 468.612 311.097 464.115 311.588C461.69 311.852 459.513 312.982 457.326 314.117C456.136 314.734 454.944 315.352 453.707 315.834C450.198 317.2 445.329 316.937 443.727 313.529C440.536 306.741 436.6 299.274 429.444 297.026C421.755 294.611 413.501 299.459 408.418 305.714C405.774 308.968 403.671 312.604 401.568 316.241Z" fill="#00160A"/>
<path fill-rule="evenodd" clip-rule="evenodd" d="M274.759 127.447C283.717 131.855 290.833 141.286 293.568 152.329L293.706 152.902C293.903 153.748 294.061 154.516 294.282 155.683L294.772 158.331C295.598 162.728 296.156 164.86 297.274 167.353C299.686 172.728 304.528 176.158 308.943 174.727L309.208 174.635C316.037 172.108 324.047 178.025 329.561 188.118C332.122 192.806 332.861 203.703 330.837 213.013C328.392 224.261 322.653 231.566 313.837 232.644L312.849 232.761C304.731 233.688 296.656 233.799 280.002 233.425L267.843 233.129C255.302 232.847 247.391 232.874 239.923 233.357L236.994 233.57C234.903 233.736 232.909 233.922 229.652 234.249L220.674 235.145C201.227 236.965 189.403 236.093 178.121 230.454L177.623 230.202C176.68 229.719 175.738 229.2 174.502 228.489L171.712 226.869C164.501 222.717 160.885 221.333 156.069 221.633C152.777 221.838 150.315 222.75 145.207 225.278L142.948 226.395C142.055 226.83 141.431 227.117 140.716 227.425C136.205 229.366 131.403 230.359 126.605 230.342C122.885 230.329 120.017 229.642 117.765 228.003C115.237 226.163 113.685 222.879 114.054 219.96C114.391 217.29 116.118 214.903 119.221 212.33C131.545 202.111 146.951 198.082 168.838 197.408L169.729 197.383C180.957 197.086 186.64 195.503 190.748 189.337C191.912 187.59 192.597 186.025 193.708 182.842L194.568 180.361C195.004 179.132 195.312 178.352 195.693 177.519C199.955 168.21 209.139 163.766 223.233 162.08L224.508 161.936C232.952 161.042 238.09 158.717 240.009 152.69L240.112 152.351C244.512 137.285 253.081 126.333 263.183 125.116C266.708 124.692 270.479 125.44 274.246 127.201L274.759 127.447Z" fill="black"/>
<path fill-rule="evenodd" clip-rule="evenodd" d="M274.91 135.183C283.375 139.114 290.099 147.525 292.684 157.375L292.813 157.885C293 158.64 293.15 159.325 293.358 160.366L293.822 162.728C294.602 166.649 295.129 168.551 296.185 170.774C298.465 175.569 303.041 178.627 307.213 177.351L307.462 177.269C313.916 175.016 321.485 180.292 326.695 189.294C329.116 193.475 329.813 203.195 327.901 211.498C325.59 221.53 320.168 228.046 311.837 229.007L310.903 229.111C303.232 229.938 295.601 230.037 279.865 229.703L268.375 229.439C256.524 229.188 249.048 229.212 241.991 229.643L239.223 229.833C237.247 229.981 235.363 230.147 232.286 230.438L223.802 231.237C205.426 232.86 194.253 232.083 183.591 227.054L183.121 226.829C182.23 226.398 181.34 225.935 180.172 225.301L177.535 223.856C170.721 220.153 167.304 218.919 162.753 219.186C159.642 219.369 155.181 218.745 150.355 221L147 222C143.5 223.5 142.176 224.226 141.5 224.5C141 224.703 139.445 226.968 134.911 226.953C131.396 226.942 128.686 226.329 126.558 224.867C124.169 223.227 122.702 220.297 123.051 217.694C123.37 215.313 125.001 213.184 127.933 210.889C139.579 201.774 150.818 199.601 171.5 199H176C186.61 198.735 191.641 195.881 195.523 190.381C196.623 188.824 197.27 187.428 198.321 184.589L199.133 182.376C199.545 181.28 199.836 180.584 200.196 179.841C204.224 171.538 212.902 167.575 226.22 166.071L227.425 165.943C235.404 165.146 240.259 163.072 242.073 157.697L242.17 157.394C246.328 143.957 254.426 134.189 263.971 133.104C267.302 132.725 270.866 133.393 274.425 134.963L274.91 135.183Z" fill="white"/>
<path fill-rule="evenodd" clip-rule="evenodd" d="M674.221 208.903C675.839 211.328 676.529 213.612 677.514 218.912L677.825 220.592C678.863 226.069 679.687 228.678 681.644 231.605C683.225 233.972 688.753 237.586 693.523 239.367L693.961 239.526C695.101 239.922 696.058 240.124 697.731 240.353L699.934 240.639C702.746 241.04 703.206 241.522 703.206 243.587C703.206 246.098 701.697 247.153 697.895 247.608L696.923 247.709L694.491 247.908C694.374 247.919 694.264 247.93 694.158 247.941L693.843 247.975C637.216 254.535 580.178 255.926 523.377 252.132C522.729 252.089 522.194 250.383 522.717 249.217C523.306 247.903 524.476 247.014 526.818 245.909C545.107 237.285 565.07 233.863 584.628 235.992L587.021 236.277L588.998 236.522C589.46 236.576 589.842 236.618 590.265 236.66C593.277 236.962 595.625 236.959 597.92 236.541C602.696 235.672 606.83 232.743 608.833 228.23C612.194 220.658 615.183 216.024 619.16 213.131C623.852 209.719 629.939 209.924 633.211 213.898L633.402 214.136C633.559 214.338 633.718 214.556 633.913 214.837L634.526 215.743C635.896 217.797 636.626 218.697 637.834 219.512C640.809 221.519 644.684 220.609 647.747 217.822C648.872 216.799 649.698 215.834 651.063 214.008L652.766 211.701C653.26 211.041 653.611 210.598 654.015 210.119C659.86 203.198 669.842 202.341 674.221 208.903Z" fill="black"/>
<path fill-rule="evenodd" clip-rule="evenodd" d="M670.477 216.488C671.997 218.378 672.645 220.157 673.569 224.285L673.862 225.595C674.837 229.861 675.611 231.893 677.448 234.174C678.933 236.018 684.125 238.833 688.604 240.221L689.015 240.344C690.086 240.653 690.985 240.81 692.556 240.989L694.625 241.211C697.265 241.524 697.697 241.899 697.697 243.508C697.697 245.465 696.28 246.286 692.709 246.64L691.797 246.719L689.513 246.874C689.403 246.883 689.3 246.891 689.2 246.9L688.904 246.927C635.726 252.037 582.16 253.121 528.818 250.165C528.209 250.131 527.707 248.802 528.198 247.894C528.752 246.871 529.85 246.178 532.05 245.317C549.225 238.598 567.973 235.933 586.34 237.592L588.586 237.814L590.443 238.004C590.877 238.047 591.236 238.079 591.633 238.112C594.462 238.347 596.667 238.345 598.822 238.019C603.307 237.342 607.189 235.06 609.071 231.544C612.227 225.646 615.034 222.036 618.769 219.783C623.175 217.124 628.892 217.284 631.964 220.38L632.144 220.565C632.291 220.723 632.44 220.892 632.623 221.111L633.199 221.817C634.486 223.417 635.171 224.118 636.306 224.753C639.1 226.316 642.738 225.608 645.616 223.437C646.672 222.639 647.448 221.888 648.729 220.465L650.329 218.668C650.793 218.154 651.122 217.809 651.502 217.435C656.991 212.044 666.365 211.376 670.477 216.488Z" fill="white"/>
<path d="M453.5 224L442.5 228L437 223.5V215.5L441.5 203L443.5 195L446 193L446.75 192.75C447.249 192.584 447.763 192.471 448.286 192.413L450.806 192.133C451.601 192.044 452.401 192.027 453.198 192.08L458.083 192.406C459.015 192.468 459.922 192.741 460.733 193.205C462.054 193.96 462.666 195.537 462.2 196.985L453.5 224Z" fill="white"/>
</svg>
